# xmcd CD database file
#
# Track frame offsets:
#	150
#	13485
#	25820
#	34997
#	48920
#	61932
#	74995
#	84927
#	97540
#	109402
#	122747
#	135497
#	147830
#	159997
#	171262
#	181870
#	194245
#	203802
#
# Disc length: 2853 seconds
#
# Revision: 0
# Processed by: cddbd v1.4PL0 Copyright (c) Steve Scherf et al.
# Submitted via: Feurio! 1.62 - http://www.feurio.com
#
DISCID=010b2312
DTITLE=Various Artist - The Country Box Teil 1
DYEAR=1995
DGENRE=
TTITLE0=Lynn Anderson - Rose Garden
TTITLE1=Johnny Cash - I Walk the Line
TTITLE2=Frankie Lane - Rawhide
TTITLE3=Bob Luman - Lonely Women make good Lovers
TTITLE4=Freddy Fender - Silver Wings
TTITLE5=Dolly Parton - Little Blossom
TTITLE6=Hank Locklin - Please help me
TTITLE7=Faron Young - It's four in the Morning
TTITLE8=Patsy Cline - Walking after midnight
TTITLE9=Patti Page - Tennessee Waltz
TTITLE10=Willie Nelson - Any old arms won't do
TTITLE11=Billie Jo Spears - What I've got in mind
TTITLE12=Johnny Dollar - Big Big rolling Man
TTITLE13=Donna Fargo - Wishful Thinking
TTITLE14=Charlie Brown - See the big man cry
TTITLE15=Kenny Rogers - Ruben James
TTITLE16=David Houston - Living in a house full of love
TTITLE17=Maxine Brown - Take it out in trade
EXTD=
EXTT0=
EXTT1=
EXTT2=
EXTT3=
EXTT4=
EXTT5=
EXTT6=
EXTT7=
EXTT8=
EXTT9=
EXTT10=
EXTT11=
EXTT12=
EXTT13=
EXTT14=
EXTT15=
EXTT16=
EXTT17=
PLAYORDER=
